<?xml version="1.0" encoding="utf-8"?>
<!-- Generator: Adobe Illustrator 19.2.1, SVG Export Plug-In . SVG Version: 6.00 Build 0)  -->
<svg version="1.1" xmlns="http://www.w3.org/2000/svg" xmlns:xlink="http://www.w3.org/1999/xlink" x="0px" y="0px"
	 viewBox="0 0 512 512" style="enable-background:new 0 0 512 512;" xml:space="preserve">
<style type="text/css">
	.st0{display:none;}
	.st1{display:inline;fill:none;stroke:#A01127;stroke-miterlimit:10;}
	.st2{fill:#1F3049;}
	.st3{fill:#E6CA56;}
	.st4{fill:#D5872A;}
	.st5{fill:#C9553E;}
	.st6{fill:#F5F5F5;}
	.st7{fill:#75A897;}
	.st8{fill:#FFFFFF;}
	.st9{fill:#E29E6F;}
	.st10{fill:#57646E;}
	.st11{fill:#8F9BA6;}
	.st12{fill:#F3F1E8;}
	.st13{fill:#E09E9A;}
	.st14{fill:#5E2D16;}
	.st15{fill:#32A57C;}
	.st16{fill:#858E96;}
	.st17{fill:#394755;}
	.st18{fill:#5082A9;}
	.st19{clip-path:url(#SVGID_2_);}
	.st20{clip-path:url(#SVGID_4_);fill:#E09E9A;}
	.st21{clip-path:url(#SVGID_4_);fill:#1F3049;}
	.st22{clip-path:url(#SVGID_4_);fill:#F5F5F5;}
	.st23{clip-path:url(#SVGID_4_);}
	.st24{fill:#9B6A57;}
	.st25{fill:#82492E;}
</style>
<g id="GUIDELINES" class="st0">
</g>
<g id="WORKSPACE" class="st0">
	<line id="XMLID_630_" class="st1" x1="486" y1="-4" x2="486" y2="516"/>
	<line id="XMLID_629_" class="st1" x1="-4" y1="26" x2="516" y2="26"/>
	<line id="XMLID_628_" class="st1" x1="-4" y1="486" x2="516" y2="486"/>
	<line id="XMLID_627_" class="st1" x1="26" y1="-4" x2="26" y2="516"/>
</g>
<g id="ICON">
</g>
<g id="Layer_6">
	<g>
		<circle class="st2" cx="256" cy="256" r="256"/>
		<g>
			<g>
				<rect x="99" y="160" class="st10" width="289" height="172"/>
				<g>
					<rect x="121" y="181" class="st12" width="245" height="130"/>
					<g>
						<path class="st7" d="M243.1,173H112v146h131.1h1H376V173H243.1z M360,273.9c-17,0-29.9,13.1-30,30.1h-85.9h-1h-85.9
							c-0.1-17-13.2-30.1-30.2-30.1v-55.4c17,0,30.1-13.6,30.1-30.2c0-0.1,0.1-0.3,0.1-0.3H330c0,0,0,0.2,0,0.3
							c0,16.6,13,30.2,30,30.2V273.9z"/>
						<path class="st12" d="M117,178v136h253V178H117z M366,310H244.1h-1H121V182h245V310z"/>
					</g>
					<g>
						<g>
							<g>
								<path class="st7" d="M295.9,246.8c-0.4,28.9-24.2,52-53.1,51.5c-28.9-0.4-52-24.2-51.5-53.1c0.4-28.9,24.2-52,53.1-51.5
									C273.3,194.1,296.3,217.9,295.9,246.8z"/>
							</g>
						</g>
						<g>
							<g>
								<g>
									<path class="st12" d="M214,267h9v-45h-9v-10h32.7c14.5,0,24.4,6.2,24.4,17c0,6.2-3.2,12-12.4,14.8
										c10,2.5,14.3,8.3,14.3,15.7c0,10.7-8.7,17.4-25,17.4H214V267z M245.8,239c8.2,0,12.9-2.8,12.9-8.7c0-5.7-4.7-8.3-12.1-8.3
										H235v17H245.8z M247.8,268c8,0,12.8-3.4,12.8-9.4c0-5.7-4.4-9.6-13.1-9.6H235v19H247.8z"/>
								</g>
							</g>
							<g>
								<g>
									<rect x="231" y="201" class="st12" width="9" height="18"/>
									<rect x="247" y="201" class="st12" width="9" height="18"/>
								</g>
								<g>
									<rect x="231" y="273" class="st12" width="9" height="18"/>
									<rect x="247" y="273" class="st12" width="9" height="18"/>
								</g>
							</g>
						</g>
					</g>
				</g>
			</g>
		</g>
		<g>
			<g>
				<path class="st2" d="M438.8,312.5c-0.7,43.8-36.7,78.8-80.5,78.1c-43.8-0.7-78.8-36.7-78.1-80.5c0.7-43.8,36.7-78.8,80.5-78.1
					C404.5,232.6,439.5,268.7,438.8,312.5z"/>
			</g>
			<g>
				<g>
					<g>
						<path class="st3" d="M429.1,312.3c-0.6,38.5-32.2,69.2-70.7,68.6c-38.5-0.6-69.2-32.2-68.6-70.7c0.6-38.5,32.2-69.2,70.7-68.6
							C399,242.2,429.7,273.9,429.1,312.3z"/>
					</g>
					<g>
						<g>
							<path class="st4" d="M416.4,312.2c-0.5,31.4-26.3,56.5-57.7,56c-31.4-0.5-56.5-26.3-56-57.7c0.5-31.4,26.3-56.5,57.7-56
								C391.8,254.9,416.8,280.7,416.4,312.2z"/>
						</g>
					</g>
					<g>
						<g>
							<g>
								<path class="st3" d="M331,332h9v-44h-9v-9h31.5c13.9,0,23.4,5.8,23.4,16.2c0,6-3.1,11.5-11.9,14.1c9.6,2.4,13.7,7.9,13.7,15
									c0,10.2-8.4,16.7-23.9,16.7H331V332z M361.7,305c7.8,0,12.4-3.1,12.4-8.7c0-5.5-4.5-8.3-11.6-8.3H351v17H361.7z M363.5,332
									c7.6,0,12.3-3.1,12.3-8.9c0-5.5-4.2-9.1-12.6-9.1H351v18H363.5z"/>
							</g>
						</g>
						<g>
							<g>
								<rect x="348" y="268" class="st3" width="8" height="17"/>
								<rect x="363" y="268" class="st3" width="8" height="17"/>
							</g>
							<g>
								<rect x="348" y="338" class="st3" width="8" height="17"/>
								<rect x="363" y="338" class="st3" width="8" height="17"/>
							</g>
						</g>
					</g>
				</g>
			</g>
		</g>
	</g>
</g>
</svg>
